<svg width="147" height="27" viewBox="0 0 147 27" fill="none" xmlns="http://www.w3.org/2000/svg">
<g clip-path="url(#clip0_1_270)">
<path d="M2.6077 21L13 3L23.3923 21H2.6077Z" stroke="#211944" stroke-width="3"/>
<path d="M9.6077 26L20 8L30.3923 26H9.6077Z" fill="#211944" stroke="#211944" stroke-width="3"/>
<path d="M32.7 21V15.05L26.925 4.9H30.45L34.4 12.175L38.35 4.9H41.85L36.075 15.05V21H32.7ZM48.3984 21.25C43.1818 21.25 40.5734 18.5083 40.5734 13.025C40.5734 10.075 41.2318 7.94167 42.5484 6.625C43.8651 5.30833 45.8151 4.65 48.3984 4.65C50.9818 4.65 52.9318 5.30833 54.2484 6.625C55.5651 7.94167 56.2234 10.075 56.2234 13.025C56.2234 18.5083 53.6151 21.25 48.3984 21.25ZM48.3984 18.375C49.9151 18.375 51.0234 17.9417 51.7234 17.075C52.4401 16.1917 52.7984 14.8417 52.7984 13.025C52.7984 11.0083 52.4401 9.59167 51.7234 8.775C51.0234 7.94167 49.9151 7.525 48.3984 7.525C46.8818 7.525 45.7651 7.94167 45.0484 8.775C44.3484 9.59167 43.9984 11.0083 43.9984 13.025C43.9984 14.8417 44.3484 16.1917 45.0484 17.075C45.7651 17.9417 46.8818 18.375 48.3984 18.375ZM64.6533 21.25C62.4367 21.25 60.6783 20.7167 59.3783 19.65C58.095 18.5667 57.4533 17 57.4533 14.95V4.9H60.8283V14.7C60.8283 15.9333 61.1617 16.8583 61.8283 17.475C62.495 18.075 63.4367 18.375 64.6533 18.375C65.87 18.375 66.8033 18.075 67.4533 17.475C68.12 16.8583 68.4533 15.9333 68.4533 14.7V4.9H71.8283V14.95C71.8283 17 71.1867 18.5667 69.9033 19.65C68.62 20.7167 66.87 21.25 64.6533 21.25ZM73.5461 21V4.9H81.2711C83.1211 4.9 84.4794 5.39167 85.3461 6.375C86.2128 7.34167 86.6461 8.65 86.6461 10.3C86.6461 11.3833 86.3628 12.3167 85.7961 13.1C85.2461 13.8833 84.4628 14.45 83.4461 14.8C83.7128 15.0167 83.9211 15.25 84.0711 15.5C84.2378 15.75 84.4044 16.0833 84.5711 16.5L86.5211 21H83.0211L81.1211 16.675C80.9544 16.3083 80.7711 16.05 80.5711 15.9C80.3711 15.75 80.0378 15.675 79.5711 15.675H76.9211V21H73.5461ZM76.9211 12.875H80.3961C81.2794 12.875 81.9711 12.6833 82.4711 12.3C82.9711 11.9 83.2211 11.2333 83.2211 10.3C83.2211 9.4 83.0044 8.74167 82.5711 8.325C82.1378 7.90833 81.4794 7.7 80.5961 7.7H76.9211V12.875ZM88.0002 21V4.9H91.3752V18.4H99.3002V21H88.0002ZM106.996 21.25C101.779 21.25 99.1711 18.5083 99.1711 13.025C99.1711 10.075 99.8294 7.94167 101.146 6.625C102.463 5.30833 104.413 4.65 106.996 4.65C109.579 4.65 111.529 5.30833 112.846 6.625C114.163 7.94167 114.821 10.075 114.821 13.025C114.821 18.5083 112.213 21.25 106.996 21.25ZM106.996 18.375C108.513 18.375 109.621 17.9417 110.321 17.075C111.038 16.1917 111.396 14.8417 111.396 13.025C111.396 11.0083 111.038 9.59167 110.321 8.775C109.621 7.94167 108.513 7.525 106.996 7.525C105.479 7.525 104.363 7.94167 103.646 8.775C102.946 9.59167 102.596 11.0083 102.596 13.025C102.596 14.8417 102.946 16.1917 103.646 17.075C104.363 17.9417 105.479 18.375 106.996 18.375ZM123.926 21.25C121.226 21.25 119.176 20.5417 117.776 19.125C116.376 17.7083 115.676 15.7417 115.676 13.225C115.676 10.5583 116.384 8.46667 117.801 6.95C119.218 5.41667 121.326 4.65 124.126 4.65C125.093 4.65 125.968 4.70833 126.751 4.825C127.534 4.925 128.276 5.09167 128.976 5.325V8.225C128.276 7.975 127.534 7.8 126.751 7.7C125.984 7.58333 125.193 7.525 124.376 7.525C122.459 7.525 121.101 8 120.301 8.95C119.501 9.88333 119.101 11.3083 119.101 13.225C119.101 16.675 120.726 18.4 123.976 18.4C124.543 18.4 125.093 18.3583 125.626 18.275C126.176 18.175 126.659 18.05 127.076 17.9V14.15H123.326V12H129.926V19.875C129.376 20.225 128.609 20.5417 127.626 20.825C126.643 21.1083 125.409 21.25 123.926 21.25ZM138.59 21.25C133.373 21.25 130.765 18.5083 130.765 13.025C130.765 10.075 131.423 7.94167 132.74 6.625C134.057 5.30833 136.007 4.65 138.59 4.65C141.173 4.65 143.123 5.30833 144.44 6.625C145.757 7.94167 146.415 10.075 146.415 13.025C146.415 18.5083 143.807 21.25 138.59 21.25ZM138.59 18.375C140.107 18.375 141.215 17.9417 141.915 17.075C142.632 16.1917 142.99 14.8417 142.99 13.025C142.99 11.0083 142.632 9.59167 141.915 8.775C141.215 7.94167 140.107 7.525 138.59 7.525C137.073 7.525 135.957 7.94167 135.24 8.775C134.54 9.59167 134.19 11.0083 134.19 13.025C134.19 14.8417 134.54 16.1917 135.24 17.075C135.957 17.9417 137.073 18.375 138.59 18.375Z" fill="#211944"/>
</g>
<defs>
<clipPath id="clip0_1_270">
<rect width="147" height="27" fill="white"/>
</clipPath>
</defs>
</svg>
