<svg width="120" height="17" viewBox="0 0 120 17" fill="none" xmlns="http://www.w3.org/2000/svg">
<path d="M111.655 16.6C106.439 16.6 103.83 13.8583 103.83 8.375C103.83 5.425 104.489 3.29167 105.805 1.975C107.122 0.658333 109.072 0 111.655 0C114.239 0 116.189 0.658333 117.505 1.975C118.822 3.29167 119.48 5.425 119.48 8.375C119.48 13.8583 116.872 16.6 111.655 16.6ZM111.655 13.725C113.172 13.725 114.28 13.2917 114.98 12.425C115.697 11.5417 116.055 10.1917 116.055 8.375C116.055 6.35833 115.697 4.94167 114.98 4.125C114.28 3.29167 113.172 2.875 111.655 2.875C110.139 2.875 109.022 3.29167 108.305 4.125C107.605 4.94167 107.255 6.35833 107.255 8.375C107.255 10.1917 107.605 11.5417 108.305 12.425C109.022 13.2917 110.139 13.725 111.655 13.725Z" fill="#211944"/>
<path d="M96.9915 16.6C94.2915 16.6 92.2415 15.8917 90.8415 14.475C89.4415 13.0583 88.7415 11.0917 88.7415 8.575C88.7415 5.90833 89.4498 3.81667 90.8665 2.3C92.2831 0.766667 94.3915 0 97.1915 0C98.1581 0 99.0331 0.0583336 99.8165 0.175001C100.6 0.275 101.341 0.441667 102.041 0.675V3.575C101.341 3.325 100.6 3.15 99.8165 3.05C99.0498 2.93333 98.2581 2.875 97.4415 2.875C95.5248 2.875 94.1665 3.35 93.3665 4.3C92.5665 5.23333 92.1665 6.65833 92.1665 8.575C92.1665 12.025 93.7915 13.75 97.0415 13.75C97.6081 13.75 98.1581 13.7083 98.6915 13.625C99.2415 13.525 99.7248 13.4 100.141 13.25V9.5H96.3914V7.35H102.991V15.225C102.441 15.575 101.675 15.8917 100.691 16.175C99.7081 16.4583 98.4748 16.6 96.9915 16.6Z" fill="#211944"/>
<path d="M80.0616 16.6C74.8449 16.6 72.2366 13.8583 72.2366 8.375C72.2366 5.425 72.8949 3.29167 74.2116 1.975C75.5282 0.658333 77.4782 0 80.0616 0C82.6449 0 84.5949 0.658333 85.9116 1.975C87.2282 3.29167 87.8866 5.425 87.8866 8.375C87.8866 13.8583 85.2782 16.6 80.0616 16.6ZM80.0616 13.725C81.5782 13.725 82.6866 13.2917 83.3866 12.425C84.1032 11.5417 84.4616 10.1917 84.4616 8.375C84.4616 6.35833 84.1032 4.94167 83.3866 4.125C82.6866 3.29167 81.5782 2.875 80.0616 2.875C78.5449 2.875 77.4282 3.29167 76.7116 4.125C76.0116 4.94167 75.6616 6.35833 75.6616 8.375C75.6616 10.1917 76.0116 11.5417 76.7116 12.425C77.4282 13.2917 78.5449 13.725 80.0616 13.725Z" fill="#211944"/>
<path d="M61.0657 16.35V0.25H64.4407V13.75H72.3657V16.35H61.0657Z" fill="#211944"/>
<path d="M46.6116 16.35V0.25H54.3366C56.1866 0.25 57.5449 0.741667 58.4116 1.725C59.2782 2.69167 59.7116 4 59.7116 5.65C59.7116 6.73333 59.4282 7.66667 58.8616 8.45C58.3116 9.23333 57.5282 9.8 56.5116 10.15C56.7782 10.3667 56.9866 10.6 57.1366 10.85C57.3032 11.1 57.4699 11.4333 57.6366 11.85L59.5866 16.35H56.0866L54.1866 12.025C54.0199 11.6583 53.8366 11.4 53.6366 11.25C53.4366 11.1 53.1032 11.025 52.6366 11.025H49.9866V16.35H46.6116ZM49.9866 8.225H53.4616C54.3449 8.225 55.0366 8.03333 55.5366 7.65C56.0366 7.25 56.2866 6.58333 56.2866 5.65C56.2866 4.75 56.0699 4.09167 55.6366 3.675C55.2032 3.25833 54.5449 3.05 53.6616 3.05H49.9866V8.225Z" fill="#211944"/>
<path d="M37.7188 16.6C35.5021 16.6 33.7438 16.0667 32.4438 15C31.1605 13.9167 30.5188 12.35 30.5188 10.3V0.25H33.8938V10.05C33.8938 11.2833 34.2271 12.2083 34.8938 12.825C35.5605 13.425 36.5021 13.725 37.7188 13.725C38.9355 13.725 39.8688 13.425 40.5188 12.825C41.1855 12.2083 41.5188 11.2833 41.5188 10.05V0.25H44.8938V10.3C44.8938 12.35 44.2521 13.9167 42.9688 15C41.6855 16.0667 39.9355 16.6 37.7188 16.6Z" fill="#211944"/>
<path d="M21.4639 16.6C16.2472 16.6 13.6389 13.8583 13.6389 8.375C13.6389 5.425 14.2972 3.29167 15.6139 1.975C16.9306 0.658333 18.8806 0 21.4639 0C24.0472 0 25.9972 0.658333 27.3139 1.975C28.6306 3.29167 29.2889 5.425 29.2889 8.375C29.2889 13.8583 26.6806 16.6 21.4639 16.6ZM21.4639 13.725C22.9806 13.725 24.0889 13.2917 24.7889 12.425C25.5056 11.5417 25.8639 10.1917 25.8639 8.375C25.8639 6.35833 25.5056 4.94167 24.7889 4.125C24.0889 3.29167 22.9806 2.875 21.4639 2.875C19.9472 2.875 18.8306 3.29167 18.1139 4.125C17.4139 4.94167 17.0639 6.35833 17.0639 8.375C17.0639 10.1917 17.4139 11.5417 18.1139 12.425C18.8306 13.2917 19.9472 13.725 21.4639 13.725Z" fill="#211944"/>
<path d="M5.76548 16.35V10.4L-0.00952148 0.25H3.51548L7.46548 7.525L11.4155 0.25H14.9155L9.14048 10.4V16.35H5.76548Z" fill="#211944"/>
</svg>
