<svg width="537" height="19" viewBox="0 0 537 19" fill="none" xmlns="http://www.w3.org/2000/svg">
<path d="M307.918 9.2238L325.535 17.2116L325.535 1.23597L307.918 9.2238Z" fill="#211944"/>
<path d="M192.449 9.2238L210.066 17.2116L210.066 1.23597L192.449 9.2238Z" fill="#211944"/>
<path d="M76.9795 9.2238L94.5968 17.2116L94.5968 1.23597L76.9795 9.2238Z" fill="#211944"/>
<path d="M269.428 9.2238L287.045 17.2116L287.045 1.23597L269.428 9.2238Z" fill="#211944"/>
<path d="M153.959 9.2238L171.576 17.2116L171.576 1.23597L153.959 9.2238Z" fill="#211944"/>
<path d="M38.4897 9.2238L56.107 17.2116L56.107 1.23597L38.4897 9.2238Z" fill="#211944"/>
<path d="M230.938 9.2238L248.556 17.2116L248.556 1.23597L230.938 9.2238Z" fill="#211944"/>
<path d="M115.469 9.2238L133.086 17.2116L133.086 1.23597L115.469 9.2238Z" fill="#211944"/>
<path d="M-5.13383e-07 9.2238L17.6173 17.2116L17.6173 1.23597L-5.13383e-07 9.2238Z" fill="#211944"/>
<path d="M423.387 9.2238L441.004 17.2116L441.004 1.23597L423.387 9.2238Z" fill="#211944"/>
<path d="M500.367 9.2238L517.984 17.2116L517.984 1.23597L500.367 9.2238Z" fill="#211944"/>
<path d="M384.897 9.2238L402.515 17.2116L402.515 1.23597L384.897 9.2238Z" fill="#211944"/>
<path d="M461.877 9.2238L479.494 17.2116L479.494 1.23597L461.877 9.2238Z" fill="#211944"/>
<path d="M346.408 9.2238L364.025 17.2116L364.025 1.23597L346.408 9.2238Z" fill="#211944"/>
</svg>
