<svg width="544" height="218" viewBox="0 0 544 218" fill="none" xmlns="http://www.w3.org/2000/svg">
<rect x="271.753" width="6.61593" height="6.61593" rx="3.30796" transform="rotate(45 271.753 0)" fill="#211944"/>
<rect x="301.428" y="29.675" width="6.61593" height="6.61593" rx="3.30796" transform="rotate(45 301.428 29.675)" fill="#211944"/>
<rect x="331.104" y="59.3502" width="6.61593" height="6.61593" rx="3.30796" transform="rotate(45 331.104 59.3502)" fill="#211944"/>
<rect x="360.779" y="89.0251" width="6.61593" height="6.61593" rx="3.30796" transform="rotate(45 360.779 89.0251)" fill="#211944"/>
<rect x="390.454" y="118.7" width="6.61593" height="6.61593" rx="3.30796" transform="rotate(45 390.454 118.7)" fill="#211944"/>
<rect x="420.129" y="148.375" width="6.61593" height="6.61593" rx="3.30796" transform="rotate(45 420.129 148.375)" fill="#211944"/>
<rect x="449.804" y="178.051" width="6.61593" height="6.61593" rx="3.30796" transform="rotate(45 449.804 178.051)" fill="#211944"/>
<rect x="479.479" y="207.725" width="6.61593" height="6.61593" rx="3.30796" transform="rotate(45 479.479 207.725)" fill="#211944"/>
<rect x="242.078" y="29.675" width="6.61593" height="6.61593" rx="3.30796" transform="rotate(45 242.078 29.675)" fill="#211944"/>
<rect x="271.753" y="59.3502" width="6.61593" height="6.61593" rx="3.30796" transform="rotate(45 271.753 59.3502)" fill="#211944"/>
<rect x="301.428" y="89.0251" width="6.61593" height="6.61593" rx="3.30796" transform="rotate(45 301.428 89.0251)" fill="#211944"/>
<rect x="331.104" y="118.7" width="6.61593" height="6.61593" rx="3.30796" transform="rotate(45 331.104 118.7)" fill="#211944"/>
<rect x="360.779" y="148.375" width="6.61593" height="6.61593" rx="3.30796" transform="rotate(45 360.779 148.375)" fill="#211944"/>
<rect x="390.454" y="178.051" width="6.61593" height="6.61593" rx="3.30796" transform="rotate(45 390.454 178.051)" fill="#211944"/>
<rect x="420.129" y="207.725" width="6.61593" height="6.61593" rx="3.30796" transform="rotate(45 420.129 207.725)" fill="#211944"/>
<rect x="212.404" y="59.3501" width="6.61593" height="6.61593" rx="3.30796" transform="rotate(45 212.404 59.3501)" fill="#211944"/>
<rect x="242.078" y="89.0251" width="6.61593" height="6.61593" rx="3.30796" transform="rotate(45 242.078 89.0251)" fill="#211944"/>
<rect x="271.753" y="118.7" width="6.61593" height="6.61593" rx="3.30796" transform="rotate(45 271.753 118.7)" fill="#211944"/>
<rect x="301.429" y="148.375" width="6.61593" height="6.61593" rx="3.30796" transform="rotate(45 301.429 148.375)" fill="#211944"/>
<rect x="331.104" y="178.05" width="6.61593" height="6.61593" rx="3.30796" transform="rotate(45 331.104 178.05)" fill="#211944"/>
<rect x="360.779" y="207.725" width="6.61593" height="6.61593" rx="3.30796" transform="rotate(45 360.779 207.725)" fill="#211944"/>
<rect x="182.729" y="89.025" width="6.61593" height="6.61593" rx="3.30796" transform="rotate(45 182.729 89.025)" fill="#211944"/>
<rect x="212.403" y="118.7" width="6.61593" height="6.61593" rx="3.30796" transform="rotate(45 212.403 118.7)" fill="#211944"/>
<rect x="242.078" y="148.375" width="6.61593" height="6.61593" rx="3.30796" transform="rotate(45 242.078 148.375)" fill="#211944"/>
<rect x="271.754" y="178.05" width="6.61593" height="6.61593" rx="3.30796" transform="rotate(45 271.754 178.05)" fill="#211944"/>
<rect x="301.429" y="207.725" width="6.61593" height="6.61593" rx="3.30796" transform="rotate(45 301.429 207.725)" fill="#211944"/>
<rect x="153.053" y="118.7" width="6.61593" height="6.61593" rx="3.30796" transform="rotate(45 153.053 118.7)" fill="#211944"/>
<rect x="182.729" y="148.375" width="6.61593" height="6.61593" rx="3.30796" transform="rotate(45 182.729 148.375)" fill="#211944"/>
<rect x="212.404" y="178.05" width="6.61593" height="6.61593" rx="3.30796" transform="rotate(45 212.404 178.05)" fill="#211944"/>
<rect x="242.079" y="207.725" width="6.61593" height="6.61593" rx="3.30796" transform="rotate(45 242.079 207.725)" fill="#211944"/>
<rect x="123.378" y="148.375" width="6.61593" height="6.61593" rx="3.30796" transform="rotate(45 123.378 148.375)" fill="#211944"/>
<rect x="153.053" y="178.05" width="6.61593" height="6.61593" rx="3.30796" transform="rotate(45 153.053 178.05)" fill="#211944"/>
<rect x="182.729" y="207.725" width="6.61593" height="6.61593" rx="3.30796" transform="rotate(45 182.729 207.725)" fill="#211944"/>
<rect x="93.7031" y="178.05" width="6.61593" height="6.61593" rx="3.30796" transform="rotate(45 93.7031 178.05)" fill="#211944"/>
<rect x="64.0283" y="207.725" width="6.61593" height="6.61593" rx="3.30796" transform="rotate(45 64.0283 207.725)" fill="#211944"/>
<rect x="123.378" y="207.725" width="6.61593" height="6.61593" rx="3.30796" transform="rotate(45 123.378 207.725)" fill="#211944"/>
</svg>
