<svg width="218" height="217" viewBox="0 0 218 217" fill="none" xmlns="http://www.w3.org/2000/svg">
<rect x="78.9937" width="5.29386" height="5.29386" rx="1.34409" transform="rotate(30 78.9937 0)" fill="#211944"/>
<rect x="93.8628" y="8.58447" width="5.29386" height="5.29386" rx="1.34409" transform="rotate(30 93.8628 8.58447)" fill="#211944"/>
<rect x="108.732" y="17.1694" width="5.29386" height="5.29386" rx="1.34409" transform="rotate(30 108.732 17.1694)" fill="#211944"/>
<rect x="123.601" y="25.7539" width="5.29386" height="5.29386" rx="1.34409" transform="rotate(30 123.601 25.7539)" fill="#211944"/>
<rect x="138.47" y="34.3386" width="5.29386" height="5.29386" rx="1.34409" transform="rotate(30 138.47 34.3386)" fill="#211944"/>
<rect x="153.339" y="42.9231" width="5.29386" height="5.29386" rx="1.34409" transform="rotate(30 153.339 42.9231)" fill="#211944"/>
<rect x="168.208" y="51.5078" width="5.29386" height="5.29386" rx="1.34409" transform="rotate(30 168.208 51.5078)" fill="#211944"/>
<rect x="183.077" y="60.0925" width="5.29386" height="5.29386" rx="1.34409" transform="rotate(30 183.077 60.0925)" fill="#211944"/>
<rect x="197.946" y="68.677" width="5.29386" height="5.29386" rx="1.34409" transform="rotate(30 197.946 68.677)" fill="#211944"/>
<rect x="212.815" y="77.2615" width="5.29386" height="5.29386" rx="1.34409" transform="rotate(30 212.815 77.2615)" fill="#211944"/>
<rect x="70.4092" y="14.8691" width="5.29386" height="5.29386" rx="1.34409" transform="rotate(30 70.4092 14.8691)" fill="#211944"/>
<rect x="85.2783" y="23.4539" width="5.29386" height="5.29386" rx="1.34409" transform="rotate(30 85.2783 23.4539)" fill="#211944"/>
<rect x="100.147" y="32.0386" width="5.29386" height="5.29386" rx="1.34409" transform="rotate(30 100.147 32.0386)" fill="#211944"/>
<rect x="115.016" y="40.6228" width="5.29386" height="5.29386" rx="1.34409" transform="rotate(30 115.016 40.6228)" fill="#211944"/>
<rect x="129.885" y="49.2078" width="5.29386" height="5.29386" rx="1.34409" transform="rotate(30 129.885 49.2078)" fill="#211944"/>
<rect x="144.754" y="57.7925" width="5.29386" height="5.29386" rx="1.34409" transform="rotate(30 144.754 57.7925)" fill="#211944"/>
<rect x="159.624" y="66.377" width="5.29386" height="5.29386" rx="1.34409" transform="rotate(30 159.624 66.377)" fill="#211944"/>
<rect x="174.492" y="74.9617" width="5.29386" height="5.29386" rx="1.34409" transform="rotate(30 174.492 74.9617)" fill="#211944"/>
<rect x="189.362" y="83.5464" width="5.29386" height="5.29386" rx="1.34409" transform="rotate(30 189.362 83.5464)" fill="#211944"/>
<rect x="61.8242" y="29.738" width="5.29386" height="5.29386" rx="1.34409" transform="rotate(30 61.8242 29.738)" fill="#211944"/>
<rect x="76.6936" y="38.3225" width="5.29386" height="5.29386" rx="1.34409" transform="rotate(30 76.6936 38.3225)" fill="#211944"/>
<rect x="91.5625" y="46.9077" width="5.29386" height="5.29386" rx="1.34409" transform="rotate(30 91.5625 46.9077)" fill="#211944"/>
<rect x="106.432" y="55.4919" width="5.29386" height="5.29386" rx="1.34409" transform="rotate(30 106.432 55.4919)" fill="#211944"/>
<rect x="121.3" y="64.0767" width="5.29386" height="5.29386" rx="1.34409" transform="rotate(30 121.3 64.0767)" fill="#211944"/>
<rect x="136.17" y="72.6611" width="5.29386" height="5.29386" rx="1.34409" transform="rotate(30 136.17 72.6611)" fill="#211944"/>
<rect x="151.039" y="81.2461" width="5.29386" height="5.29386" rx="1.34409" transform="rotate(30 151.039 81.2461)" fill="#211944"/>
<rect x="165.908" y="89.8308" width="5.29386" height="5.29386" rx="1.34409" transform="rotate(30 165.908 89.8308)" fill="#211944"/>
<rect x="53.2397" y="44.6072" width="5.29386" height="5.29386" rx="1.34409" transform="rotate(30 53.2397 44.6072)" fill="#211944"/>
<rect x="68.1089" y="53.1919" width="5.29386" height="5.29386" rx="1.34409" transform="rotate(30 68.1089 53.1919)" fill="#211944"/>
<rect x="82.9778" y="61.7766" width="5.29386" height="5.29386" rx="1.34409" transform="rotate(30 82.9778 61.7766)" fill="#211944"/>
<rect x="97.8469" y="70.3611" width="5.29386" height="5.29386" rx="1.34409" transform="rotate(30 97.8469 70.3611)" fill="#211944"/>
<rect x="112.716" y="78.9458" width="5.29386" height="5.29386" rx="1.34409" transform="rotate(30 112.716 78.9458)" fill="#211944"/>
<rect x="127.585" y="87.5305" width="5.29386" height="5.29386" rx="1.34409" transform="rotate(30 127.585 87.5305)" fill="#211944"/>
<rect x="142.454" y="96.115" width="5.29386" height="5.29386" rx="1.34409" transform="rotate(30 142.454 96.115)" fill="#211944"/>
<rect x="44.655" y="59.4761" width="5.29386" height="5.29386" rx="1.34409" transform="rotate(30 44.655 59.4761)" fill="#211944"/>
<rect x="59.5242" y="68.0605" width="5.29386" height="5.29386" rx="1.34409" transform="rotate(30 59.5242 68.0605)" fill="#211944"/>
<rect x="74.3933" y="76.6458" width="5.29386" height="5.29386" rx="1.34409" transform="rotate(30 74.3933 76.6458)" fill="#211944"/>
<rect x="89.2622" y="85.23" width="5.29386" height="5.29386" rx="1.34409" transform="rotate(30 89.2622 85.23)" fill="#211944"/>
<rect x="104.131" y="93.8147" width="5.29386" height="5.29386" rx="1.34409" transform="rotate(30 104.131 93.8147)" fill="#211944"/>
<rect x="119" y="102.399" width="5.29386" height="5.29386" rx="1.34409" transform="rotate(30 119 102.399)" fill="#211944"/>
<rect x="36.0706" y="74.3452" width="5.29386" height="5.29386" rx="1.34409" transform="rotate(30 36.0706 74.3452)" fill="#211944"/>
<rect x="50.9397" y="82.9297" width="5.29386" height="5.29386" rx="1.34409" transform="rotate(30 50.9397 82.9297)" fill="#211944"/>
<rect x="65.8083" y="91.5146" width="5.29386" height="5.29386" rx="1.34409" transform="rotate(30 65.8083 91.5146)" fill="#211944"/>
<rect x="80.6777" y="100.099" width="5.29386" height="5.29386" rx="1.34409" transform="rotate(30 80.6777 100.099)" fill="#211944"/>
<rect x="95.5464" y="108.684" width="5.29386" height="5.29386" rx="1.34409" transform="rotate(30 95.5464 108.684)" fill="#211944"/>
<rect x="27.4856" y="89.2141" width="5.29386" height="5.29386" rx="1.34409" transform="rotate(30 27.4856 89.2141)" fill="#211944"/>
<rect x="19.2063" y="103.555" width="5.29386" height="5.29386" rx="1.34409" transform="rotate(30 19.2063 103.555)" fill="#211944"/>
<rect x="10.9265" y="117.896" width="5.29386" height="5.29386" rx="1.34409" transform="rotate(30 10.9265 117.896)" fill="#211944"/>
<rect x="2.64722" y="132.236" width="5.29386" height="5.29386" rx="1.34409" transform="rotate(30 2.64722 132.236)" fill="#211944"/>
<rect x="42.355" y="97.7991" width="5.29386" height="5.29386" rx="1.34409" transform="rotate(30 42.355 97.7991)" fill="#211944"/>
<rect x="34.0754" y="112.139" width="5.29386" height="5.29386" rx="1.34409" transform="rotate(30 34.0754 112.139)" fill="#211944"/>
<rect x="25.7957" y="126.48" width="5.29386" height="5.29386" rx="1.34409" transform="rotate(30 25.7957 126.48)" fill="#211944"/>
<rect x="57.2239" y="106.384" width="5.29386" height="5.29386" rx="1.34409" transform="rotate(30 57.2239 106.384)" fill="#211944"/>
<rect x="48.9443" y="120.724" width="5.29386" height="5.29386" rx="1.34409" transform="rotate(30 48.9443 120.724)" fill="#211944"/>
<rect x="72.0928" y="114.968" width="5.29386" height="5.29386" rx="1.34409" transform="rotate(30 72.0928 114.968)" fill="#211944"/>
</svg>
